<svg width="24" height="25" viewBox="0 0 24 25" fill="none" xmlns="http://www.w3.org/2000/svg">
<path fill-rule="evenodd" clip-rule="evenodd" d="M1.25 12.0017C1.25 17.9317 6.07 22.7517 12 22.7517C17.93 22.7517 22.75 17.9317 22.75 12.0017C22.75 6.07171 17.93 1.25171 12 1.25171C6.07 1.25171 1.25 6.07171 1.25 12.0017ZM2.75 12.0017C2.75 6.90171 6.9 2.75171 12 2.75171C17.1 2.75171 21.25 6.90171 21.25 12.0017C21.25 17.1017 17.1 21.2517 12 21.2517C6.9 21.2517 2.75 17.1017 2.75 12.0017ZM12.7299 16.0619C12.8799 16.2119 13.0699 16.2819 13.2599 16.2819C13.4599 16.2819 13.6499 16.2119 13.7899 16.0619C14.0799 15.7719 14.0799 15.2919 13.7899 15.0019L10.7899 12.0019L13.7899 9.00187C14.0799 8.71186 14.0799 8.23187 13.7899 7.94187C13.4999 7.65187 13.0199 7.65187 12.7299 7.94187L9.19992 11.4719C8.90992 11.7619 8.90992 12.2419 9.19992 12.5319L12.7299 16.0619Z" fill="#B0B0B0"/>
</svg>
