<svg width="24" height="25" viewBox="0 0 24 25" fill="none" xmlns="http://www.w3.org/2000/svg">
<path fill-rule="evenodd" clip-rule="evenodd" d="M9.03848 18.6004C9.18848 18.7504 9.37848 18.8204 9.56848 18.8204C9.75848 18.8204 9.95848 18.7504 10.0985 18.6004C10.3885 18.3104 10.3885 17.8304 10.0985 17.5404L5.30836 12.7502H20.4989C20.9089 12.7502 21.2489 12.4102 21.2489 12.0002C21.2489 11.5902 20.9089 11.2502 20.4989 11.2502H5.30859L10.0985 6.46036C10.3885 6.17036 10.3885 5.69036 10.0985 5.40036C9.80848 5.11036 9.32848 5.11036 9.03848 5.40036L2.96848 11.4704C2.67848 11.7604 2.67848 12.2404 2.96848 12.5304L9.03848 18.6004Z" fill="#B0B0B0"/>
</svg>
