<svg width="24" height="25" viewBox="0 0 24 25" fill="none" xmlns="http://www.w3.org/2000/svg">
<path d="M3.5 15.0027C3.49999 14.7266 3.27612 14.5028 2.99998 14.5028C2.72384 14.5028 2.49999 14.7266 2.5 15.0028L3.5 15.0027ZM21.5002 15.0028C21.5002 14.7266 21.2764 14.5028 21.0002 14.5028C20.7241 14.5028 20.5002 14.7266 20.5002 15.0028H21.5002ZM12 16.0015L11.6464 16.355C11.8417 16.5503 12.1583 16.5503 12.3536 16.355L12 16.0015ZM12.5 3.00146C12.5 2.72532 12.2761 2.50146 12 2.50146C11.7239 2.50146 11.5 2.72532 11.5 3.00146H12.5ZM17.3536 11.355C17.5488 11.1598 17.5488 10.8432 17.3536 10.6479C17.1583 10.4526 16.8417 10.4526 16.6464 10.6479L17.3536 11.355ZM7.35355 10.6479C7.15829 10.4526 6.84171 10.4526 6.64645 10.6479C6.45118 10.8432 6.45118 11.1598 6.64645 11.355L7.35355 10.6479ZM2.5 15.0028L2.50016 19.0016L3.50016 19.0015L3.5 15.0027L2.5 15.0028ZM5.00016 21.5015H19.0002V20.5015H5.00016V21.5015ZM21.5002 19.0015V15.0028H20.5002V19.0015H21.5002ZM12.5 16.0015V3.00146H11.5V16.0015H12.5ZM12.3536 16.355L17.3536 11.355L16.6464 10.6479L11.6464 15.6479L12.3536 16.355ZM12.3536 15.6479L7.35355 10.6479L6.64645 11.355L11.6464 16.355L12.3536 15.6479ZM19.0002 21.5015C20.3809 21.5015 21.5002 20.3822 21.5002 19.0015H20.5002C20.5002 19.8299 19.8287 20.5015 19.0002 20.5015V21.5015ZM2.50016 19.0016C2.50021 20.3823 3.61948 21.5015 5.00016 21.5015V20.5015C4.17175 20.5015 3.50019 19.8299 3.50016 19.0015L2.50016 19.0016Z" fill="#B0B0B0"/>
</svg>
