<svg width="24" height="24" viewBox="0 0 24 24" fill="none" xmlns="http://www.w3.org/2000/svg">
<path fill-rule="evenodd" clip-rule="evenodd" d="M2.75 9C2.75 6.57397 3.2398 5.07086 4.15533 4.15533C5.07086 3.2398 6.57397 2.75 9 2.75H15C17.426 2.75 18.9291 3.2398 19.8447 4.15533C20.7602 5.07086 21.25 6.57397 21.25 9V15C21.25 17.426 20.7602 18.9291 19.8447 19.8447C18.9291 20.7602 17.426 21.25 15 21.25H14.75V15.45H16.2C16.4344 15.45 16.6444 15.358 16.7734 15.2806C16.8486 15.2355 16.9461 15.166 17.034 15.0646C17.1034 14.9846 17.2115 14.8318 17.2418 14.6169L17.6339 12.7545L17.65 12.6781V12.6C17.65 12.3887 17.5995 12.1346 17.449 11.909C17.2838 11.6611 16.9909 11.45 16.6 11.45H14.75V9.75H16.7C16.9156 9.75 17.2151 9.69559 17.4553 9.45533C17.6956 9.21507 17.75 8.91561 17.75 8.7V6.3C17.75 6.08439 17.6956 5.78493 17.4553 5.54467C17.2151 5.30441 16.9156 5.25 16.7 5.25H14C11.8858 5.25 10.25 6.88579 10.25 9V11.55H9.3C9.08439 11.55 8.78493 11.6044 8.54467 11.8447C8.30441 12.0849 8.25 12.3844 8.25 12.6V14.5C8.25 14.7156 8.30441 15.0151 8.54467 15.2553C8.78493 15.4956 9.08439 15.55 9.3 15.55H10.25V21.25H9C6.57397 21.25 5.07086 20.7602 4.15533 19.8447C3.2398 18.9291 2.75 17.426 2.75 15V9ZM11.75 21.25H13.25V14.7V13.95H14H15.8493L16.0599 12.95H14H13.25V12.2V9.3C13.25 9.08439 13.3044 8.78493 13.5447 8.54467C13.7849 8.30441 14.0844 8.25 14.3 8.25H16.25V6.75H14C12.7142 6.75 11.75 7.71421 11.75 9V12.3V13.05H11H9.75V14.05H11H11.75V14.8V21.25ZM10.25 22.75H9C6.42603 22.75 4.42914 22.2398 3.09467 20.9053C1.7602 19.5709 1.25 17.574 1.25 15V9C1.25 6.42603 1.7602 4.42914 3.09467 3.09467C4.42914 1.7602 6.42603 1.25 9 1.25H15C17.574 1.25 19.5709 1.7602 20.9053 3.09467C22.2398 4.42914 22.75 6.42603 22.75 9V15C22.75 17.574 22.2398 19.5709 20.9053 20.9053C19.5709 22.2398 17.574 22.75 15 22.75H14.75H14H11H10.25Z" fill="#B0B0B0"/>
</svg>
