<svg width="24" height="25" viewBox="0 0 24 25" fill="none" xmlns="http://www.w3.org/2000/svg">
<path fill-rule="evenodd" clip-rule="evenodd" d="M6.4018 22.5691H17.6018C19.3918 22.5691 21.0818 21.1391 21.3818 19.3691L22.7118 11.4091C22.9118 10.1691 22.3118 8.57914 21.3318 7.78914L14.4018 2.2491C13.0518 1.1691 10.9418 1.15909 9.60181 2.23909L2.6718 7.78914C1.6818 8.57914 1.0818 10.1691 1.2918 11.4091L2.6218 19.3691C2.9218 21.1691 4.5818 22.5691 6.4018 22.5691ZM10.5418 3.41909C10.9318 3.10909 11.4618 2.94912 11.9918 2.94912C12.5318 2.94912 13.0618 3.10909 13.4618 3.41909L20.3918 8.95913C20.9518 9.40913 21.3518 10.4391 21.2318 11.1591L19.9018 19.1191C19.7218 20.1791 18.6718 21.0691 17.6018 21.0691H6.4018C5.3318 21.0691 4.28181 20.1791 4.10181 19.1291L2.77181 11.1691C2.65181 10.4491 3.0418 9.42914 3.6118 8.96914L10.5418 3.41909ZM8.75009 13.0016C8.75009 14.7916 10.2101 16.2516 12.0001 16.2516C13.7901 16.2516 15.2501 14.7916 15.2501 13.0016C15.2501 11.2116 13.7901 9.75159 12.0001 9.75159C10.2101 9.75159 8.75009 11.2116 8.75009 13.0016ZM10.2501 13.0016C10.2501 12.0416 11.0401 11.2516 12.0001 11.2516C12.9601 11.2516 13.7501 12.0416 13.7501 13.0016C13.7501 13.9616 12.9601 14.7516 12.0001 14.7516C11.0401 14.7516 10.2501 13.9616 10.2501 13.0016Z" fill="#B0B0B0"/>
</svg>
