<svg width="24" height="25" viewBox="0 0 24 25" fill="none" xmlns="http://www.w3.org/2000/svg">
<path fill-rule="evenodd" clip-rule="evenodd" d="M4 14.0017C2.89455 14.0017 2 13.1072 2 12.0017C2 10.8963 2.89455 10.0017 4 10.0017C5.10545 10.0017 6 10.8963 6 12.0017C6 13.1072 5.10545 14.0017 4 14.0017ZM20 14.0017C18.8945 14.0017 18 13.1072 18 12.0017C18 10.8963 18.8945 10.0017 20 10.0017C21.1055 10.0017 22 10.8963 22 12.0017C22 13.1072 21.1055 14.0017 20 14.0017ZM10 12.0017C10 13.1072 10.8945 14.0017 12 14.0017C13.1055 14.0017 14 13.1072 14 12.0017C14 10.8963 13.1055 10.0017 12 10.0017C10.8945 10.0017 10 10.8963 10 12.0017Z" fill="#B0B0B0"/>
</svg>
