<svg width="24" height="25" viewBox="0 0 24 25" fill="none" xmlns="http://www.w3.org/2000/svg">
<path fill-rule="evenodd" clip-rule="evenodd" d="M14.0127 3.77612C15.1746 4.41813 15.75 5.77149 15.75 7.41257V16.5926C15.75 18.2296 15.1741 19.5818 14.0135 20.2249C12.8526 20.8681 11.4007 20.6389 10.0117 19.7681L10.0116 19.768L7.10012 17.9433C6.8875 17.8187 6.65132 17.7526 6.43 17.7526H5C3.88439 17.7526 2.90993 17.4732 2.21967 16.7829C1.52941 16.0926 1.25 15.1182 1.25 14.0026V10.0026C1.25 8.88696 1.52941 7.9125 2.21967 7.22224C2.90993 6.53198 3.88439 6.25257 5 6.25257H6.43C6.65133 6.25257 6.88751 6.18645 7.10014 6.06179L10.0116 4.23714L10.0117 4.23706C11.3995 3.36698 12.8512 3.13433 14.0127 3.77612ZM13.2873 5.08902C12.7838 4.81083 11.9406 4.79815 10.8084 5.508L10.8083 5.50808L7.88828 7.33808L7.88065 7.34286L7.8729 7.34746C7.44733 7.60015 6.94625 7.75257 6.43 7.75257H5C4.11561 7.75257 3.59007 7.97316 3.28033 8.2829C2.97059 8.59264 2.75 9.11818 2.75 10.0026V14.0026C2.75 14.887 2.97059 15.4125 3.28033 15.7222C3.59007 16.032 4.11561 16.2526 5 16.2526H6.43C6.94625 16.2526 7.44733 16.405 7.8729 16.6577L7.88065 16.6623L7.88828 16.6671L10.8083 18.4971L10.8084 18.4971C11.9394 19.2062 12.7825 19.1921 13.2865 18.9128C13.7909 18.6333 14.25 17.9255 14.25 16.5926V7.41257C14.25 6.07366 13.7904 5.36702 13.2873 5.08902ZM17.5097 9.47221C17.8026 9.17932 18.2775 9.17932 18.5704 9.47221L20.02 10.9219L21.4297 9.51225C21.7226 9.21935 22.1974 9.21935 22.4903 9.51225C22.7832 9.80514 22.7832 10.28 22.4903 10.5729L21.0807 11.9825L22.5304 13.4322C22.8233 13.7251 22.8233 14.2 22.5304 14.4929C22.2375 14.7858 21.7626 14.7858 21.4697 14.4929L20.02 13.0432L18.5303 14.5329C18.2374 14.8258 17.7626 14.8258 17.4697 14.5329C17.1768 14.24 17.1768 13.7651 17.4697 13.4722L18.9594 11.9825L17.5097 10.5329C17.2168 10.24 17.2168 9.7651 17.5097 9.47221Z" fill="#B0B0B0"/>
</svg>
