<svg width="24" height="25" viewBox="0 0 24 25" fill="none" xmlns="http://www.w3.org/2000/svg">
<path fill-rule="evenodd" clip-rule="evenodd" d="M4.65976 19.6467C5.17976 19.9467 5.73975 20.0967 6.30975 20.0967C6.87975 20.0967 7.43975 19.9467 7.95975 19.6367L16.2498 14.8567C17.2798 14.2567 17.8997 13.1867 17.8997 11.9967C17.8997 10.8067 17.2798 9.73674 16.2498 9.13674L7.95975 4.35674C6.92975 3.75674 5.69976 3.75674 4.65976 4.35674C3.62976 4.95674 3.00977 6.02672 3.00977 7.21672V16.7867C3.00977 17.9867 3.61976 19.0467 4.65976 19.6467ZM5.40976 5.65673C5.68976 5.49673 5.99975 5.41674 6.30975 5.41674C6.61975 5.41674 6.92975 5.50674 7.20975 5.66674L15.4998 10.4467C16.0598 10.7767 16.3997 11.3567 16.3997 12.0067C16.3997 12.6567 16.0598 13.2367 15.4998 13.5667L7.20975 18.3467C6.64975 18.6767 5.96976 18.6667 5.40976 18.3467C4.84976 18.0167 4.50977 17.4367 4.50977 16.7867V7.21672C4.50977 6.56672 4.84976 5.98673 5.40976 5.65673ZM19.4902 18.1871C19.4902 18.5971 19.8302 18.9371 20.2402 18.9371C20.6602 18.9371 20.9902 18.5971 20.9902 18.1871V5.82715C20.9902 5.41715 20.6502 5.07715 20.2402 5.07715C19.8302 5.07715 19.4902 5.41715 19.4902 5.82715V18.1871Z" fill="#B0B0B0"/>
</svg>
 