<svg width="24" height="25" viewBox="0 0 24 25" fill="none" xmlns="http://www.w3.org/2000/svg">
<path fill-rule="evenodd" clip-rule="evenodd" d="M5.40118 2.25171C4.72926 2.25171 4.06878 2.41328 3.61308 2.96053C3.18724 3.4719 3.07471 4.16817 3.07471 4.89171V19.1117C3.07471 19.8352 3.18724 20.5315 3.61308 21.0429C4.06878 21.5901 4.72926 21.7517 5.40118 21.7517H8.24824C8.92016 21.7517 9.58064 21.5901 10.0363 21.0429C10.4622 20.5315 10.5747 19.8352 10.5747 19.1117V4.89171C10.5747 4.16817 10.4622 3.4719 10.0363 2.96053C9.58064 2.41328 8.92016 2.25171 8.24824 2.25171H5.40118ZM4.57471 4.89171C4.57471 4.26525 4.6857 4.01652 4.76575 3.92039C4.81593 3.86013 4.94369 3.75171 5.40118 3.75171H8.24824C8.70573 3.75171 8.83349 3.86013 8.88366 3.92039C8.96371 4.01652 9.07471 4.26525 9.07471 4.89171V19.1117C9.07471 19.7382 8.96371 19.9869 8.88366 20.083C8.83349 20.1433 8.70573 20.2517 8.24824 20.2517H5.40118C4.94369 20.2517 4.81593 20.1433 4.76575 20.083C4.6857 19.9869 4.57471 19.7382 4.57471 19.1117V4.89171ZM15.7513 2.25171C15.0817 2.25171 14.4229 2.41404 13.967 2.95943C13.5402 3.47007 13.4248 4.16571 13.4248 4.89171V19.1117C13.4248 19.8352 13.5373 20.5315 13.9632 21.0429C14.4189 21.5901 15.0794 21.7517 15.7513 21.7517H18.5983C19.2703 21.7517 19.9307 21.5901 20.3864 21.0429C20.8123 20.5315 20.9248 19.8352 20.9248 19.1117V4.89171C20.9248 4.16817 20.8123 3.4719 20.3864 2.96053C19.9307 2.41328 19.2703 2.25171 18.5983 2.25171H15.7513ZM14.9248 4.89171C14.9248 4.26771 15.0369 4.01835 15.1179 3.92149C15.1698 3.85938 15.2993 3.75171 15.7513 3.75171H18.5983C19.0558 3.75171 19.1836 3.86013 19.2338 3.92039C19.3138 4.01652 19.4248 4.26525 19.4248 4.89171V19.1117C19.4248 19.7382 19.3138 19.9869 19.2338 20.083C19.1836 20.1433 19.0558 20.2517 18.5983 20.2517H15.7513C15.2938 20.2517 15.166 20.1433 15.1158 20.083C15.0358 19.9869 14.9248 19.7382 14.9248 19.1117V4.89171Z" fill="#B0B0B0"/>
</svg>
