<svg width="24" height="25" viewBox="0 0 24 25" fill="none" xmlns="http://www.w3.org/2000/svg">
<path d="M7.86512 21.2768C7.07512 21.2768 6.32512 21.0868 5.66512 20.7068C4.10512 19.8068 3.24512 17.9768 3.24512 15.5668V8.43681C3.24512 6.01681 4.10512 4.19682 5.66512 3.29682C7.22512 2.39682 9.23512 2.56682 11.3351 3.77682L17.5051 7.33682C19.5951 8.54682 20.7551 10.2068 20.7551 12.0068C20.7551 13.8068 19.6051 15.4668 17.5051 16.6768L11.3351 20.2368C10.1251 20.9268 8.94512 21.2768 7.86512 21.2768ZM7.86512 4.21681C7.32512 4.21681 6.84512 4.33682 6.41512 4.58682C5.33512 5.20682 4.74512 6.57681 4.74512 8.43681V15.5568C4.74512 17.4168 5.33512 18.7768 6.41512 19.4068C7.49512 20.0368 8.97512 19.8568 10.5851 18.9268L16.7551 15.3668C18.3651 14.4368 19.2551 13.2468 19.2551 11.9968C19.2551 10.7468 18.3651 9.55682 16.7551 8.62682L10.5851 5.06682C9.60512 4.50682 8.68512 4.21681 7.86512 4.21681Z" fill="#B0B0B0"/>
</svg>
