<svg width="24" height="25" viewBox="0 0 24 25" fill="none" xmlns="http://www.w3.org/2000/svg">
<path fill-rule="evenodd" clip-rule="evenodd" d="M16.0396 19.6419C16.5596 19.9419 17.1196 20.0919 17.6896 20.0919C18.2596 20.0919 18.8196 19.9419 19.3396 19.6519C20.3696 19.0519 20.9896 17.9819 20.9896 16.7919V7.22188C20.9896 6.02188 20.3796 4.96187 19.3396 4.36187C18.2996 3.76187 17.0696 3.76187 16.0396 4.36187L7.7496 9.14189C6.7196 9.74189 6.09961 10.8119 6.09961 12.0019C6.09961 13.1919 6.7196 14.2619 7.7496 14.8619L16.0396 19.6419ZM16.7896 5.65187C17.0696 5.49187 17.3796 5.41188 17.6896 5.41188C17.9996 5.41188 18.3096 5.50189 18.5896 5.64189C19.1496 5.97189 19.4896 6.55189 19.4896 7.20189V16.7719C19.4896 17.4219 19.1496 18.0019 18.5896 18.3319C18.0296 18.6619 17.3496 18.6619 16.7896 18.3319L8.4996 13.5519C7.9396 13.2219 7.59961 12.6419 7.59961 11.9919C7.59961 11.3419 7.9396 10.7619 8.4996 10.4319L16.7896 5.65187ZM3.00977 18.1815C3.00977 18.5915 3.34977 18.9315 3.75977 18.9315C4.16977 18.9315 4.50977 18.5915 4.50977 18.1815V5.82153C4.50977 5.41153 4.16977 5.07153 3.75977 5.07153C3.34977 5.07153 3.00977 5.41153 3.00977 5.82153V18.1815Z" fill="#B0B0B0"/>
</svg>
