<svg width="24" height="25" viewBox="0 0 24 25" fill="none" xmlns="http://www.w3.org/2000/svg">
<path fill-rule="evenodd" clip-rule="evenodd" d="M13.4589 2.48259C13.7456 2.18363 14.2204 2.1737 14.5194 2.46041L16.9594 4.80043C17.1806 5.01262 17.2505 5.33808 17.1358 5.62236C17.0211 5.90664 16.7449 6.09251 16.4383 6.09173L8.49023 6.07172H8.48932C5.33545 6.07222 2.74023 8.66476 2.74023 11.8417C2.74023 13.4241 3.38493 14.8658 4.43055 15.9114C4.72345 16.2043 4.72345 16.6791 4.43055 16.972C4.13766 17.2649 3.66279 17.2649 3.36989 16.972C2.05551 15.6577 1.24023 13.8393 1.24023 11.8417C1.24023 7.83903 4.50452 4.57172 8.49023 4.57172H8.49212L14.5697 4.58702L13.4811 3.54301C13.1822 3.25631 13.1722 2.78154 13.4589 2.48259ZM19.57 7.03144C19.8629 6.73855 20.3377 6.73855 20.6306 7.03144C21.945 8.34582 22.7603 10.1641 22.7603 12.1617C22.7603 16.1645 19.496 19.4318 15.5103 19.4318H15.5084L9.43081 19.4165L10.5194 20.4605C10.8184 20.7472 10.8283 21.2219 10.5416 21.5209C10.2549 21.8198 9.78013 21.8298 9.48118 21.5431L7.04118 19.203C6.81993 18.9909 6.75008 18.6654 6.86478 18.3811C6.97948 18.0968 7.25564 17.911 7.56219 17.9117L15.5103 17.9318H15.5114C18.6652 17.9312 21.2603 15.3387 21.2603 12.1617C21.2603 10.5794 20.6156 9.13772 19.57 8.0921C19.2771 7.79921 19.2771 7.32433 19.57 7.03144ZM9.00024 11.2517C8.58603 11.2517 8.25024 11.5875 8.25024 12.0017C8.25024 12.4159 8.58603 12.7517 9.00024 12.7517H15.0002C15.4145 12.7517 15.7502 12.4159 15.7502 12.0017C15.7502 11.5875 15.4145 11.2517 15.0002 11.2517H9.00024Z" fill="#B0B0B0"/>
</svg>
