<svg width="24" height="25" viewBox="0 0 24 25" fill="none" xmlns="http://www.w3.org/2000/svg">
<path fill-rule="evenodd" clip-rule="evenodd" d="M2.75 11.5017C2.75 6.66922 6.66751 2.75171 11.5 2.75171C16.3325 2.75171 20.25 6.66922 20.25 11.5017C20.25 16.3342 16.3325 20.2517 11.5 20.2517C6.66751 20.2517 2.75 16.3342 2.75 11.5017ZM11.5 1.25171C5.83908 1.25171 1.25 5.84079 1.25 11.5017C1.25 17.1626 5.83908 21.7517 11.5 21.7517C17.1609 21.7517 21.75 17.1626 21.75 11.5017C21.75 5.84079 17.1609 1.25171 11.5 1.25171ZM20.5303 19.4714C20.2374 19.1785 19.7626 19.1785 19.4697 19.4714C19.1768 19.7643 19.1768 20.2391 19.4697 20.532L21.4697 22.532C21.7626 22.8249 22.2374 22.8249 22.5303 22.532C22.8232 22.2391 22.8232 21.7643 22.5303 21.4714L20.5303 19.4714Z" fill="#B0B0B0"/>
</svg>
