<svg width="24" height="25" viewBox="0 0 24 25" fill="none" xmlns="http://www.w3.org/2000/svg">
<path fill-rule="evenodd" clip-rule="evenodd" d="M14.58 22.1115C14.79 22.1615 15 22.1915 15.21 22.1915C15.63 22.1915 16.04 22.0815 16.42 21.8715L18.15 20.8815C18.77 20.5315 19.21 19.9615 19.39 19.2715C19.58 18.5915 19.48 17.8715 19.13 17.2615C18.83 16.7515 18.76 16.2915 18.93 16.0015C19.1 15.7115 19.53 15.5415 20.12 15.5415C21.58 15.5415 22.77 14.3515 22.77 12.8915V11.1315C22.77 9.67151 21.58 8.48151 20.12 8.48151C19.53 8.48151 19.1 8.31151 18.93 8.02151C18.76 7.73151 18.84 7.27151 19.13 6.76151C19.48 6.15151 19.57 5.44151 19.39 4.75151C19.2 4.06151 18.76 3.49151 18.15 3.14151L16.43 2.15151C15.29 1.47151 13.8 1.86151 13.12 3.02151L13.01 3.21151C12.42 4.23151 11.61 4.23151 11.02 3.21151L10.9 3.01151C10.22 1.86151 8.73 1.47151 7.6 2.14151L5.87 3.13151C5.25 3.48151 4.81 4.05151 4.63 4.74151C4.45 5.42151 4.54 6.14151 4.89 6.75151C5.19 7.26151 5.26 7.72151 5.09 8.01151C4.92 8.30151 4.49 8.47151 3.9 8.47151C2.44 8.47151 1.25 9.66151 1.25 11.1215V12.8815C1.25 14.3415 2.44 15.5315 3.9 15.5315C4.49 15.5315 4.92 15.7015 5.09 15.9915C5.26 16.2815 5.18 16.7415 4.89 17.2515C4.54 17.8615 4.45 18.5715 4.63 19.2615C4.82 19.9515 5.26 20.5215 5.87 20.8715L7.59 21.8615C8.14 22.1915 8.79 22.2815 9.42 22.1115C10.04 21.9515 10.56 21.5515 10.89 20.9915L11 20.8015C11.59 19.7815 12.4 19.7815 12.99 20.8015L13.11 21.0015C13.44 21.5515 13.96 21.9415 14.58 22.1115ZM14.29 20.0415C13.72 19.0515 12.89 18.4915 12 18.4915C11.11 18.4915 10.28 19.0615 9.71 20.0415L9.6 20.2315C9.47 20.4415 9.27 20.6015 9.03 20.6615C8.8 20.7215 8.55 20.6915 8.34 20.5615L6.61 19.5715C6.35 19.4115 6.16 19.1715 6.08 18.8715C6 18.5715 6.04 18.2615 6.19 18.0015C6.76 17.0215 6.83 16.0115 6.39 15.2415C5.95 14.4715 5.04 14.0315 3.9 14.0315C3.26 14.0315 2.75 13.5115 2.75 12.8815V11.1215C2.75 10.4815 3.26 9.97151 3.9 9.97151C5.04 9.97151 5.95 9.53151 6.39 8.76151C6.83 7.99151 6.76 6.98151 6.19 6.00151C6.04 5.74151 6 5.43151 6.08 5.13151C6.16 4.83151 6.36 4.58151 6.62 4.43151L8.35 3.43151C8.78 3.18151 9.34 3.33151 9.59 3.75151L9.7 3.95151C10.27 4.94151 11.1 5.50151 11.99 5.50151C12.88 5.50151 13.71 4.94151 14.28 3.95151L14.39 3.76151C14.65 3.32151 15.22 3.17151 15.65 3.43151L17.38 4.42151C17.64 4.58151 17.83 4.82151 17.91 5.12151C17.99 5.42151 17.95 5.73151 17.8 5.99151C17.23 6.97151 17.16 7.98151 17.6 8.75151C18.04 9.52151 18.95 9.96151 20.09 9.96151C20.73 9.96151 21.24 10.4815 21.24 11.1115V12.8715C21.24 13.5115 20.73 14.0215 20.09 14.0215C18.95 14.0215 18.04 14.4615 17.6 15.2315C17.16 16.0015 17.23 17.0115 17.8 17.9915C17.95 18.2515 17.99 18.5615 17.91 18.8615C17.83 19.1615 17.63 19.4115 17.37 19.5615L15.64 20.5615C15.44 20.6815 15.2 20.7115 14.96 20.6515C14.72 20.5915 14.52 20.4415 14.4 20.2315L14.29 20.0415ZM8.25 12.0017C8.25 14.0717 9.93 15.7517 12 15.7517C14.07 15.7517 15.75 14.0717 15.75 12.0017C15.75 9.93171 14.07 8.25171 12 8.25171C9.93 8.25171 8.25 9.93171 8.25 12.0017ZM9.75 12.0017C9.75 10.7617 10.76 9.75171 12 9.75171C13.24 9.75171 14.25 10.7617 14.25 12.0017C14.25 13.2417 13.24 14.2517 12 14.2517C10.76 14.2517 9.75 13.2417 9.75 12.0017Z" fill="#B0B0B0"/>
</svg>
