<svg width="24" height="25" viewBox="0 0 24 25" fill="none" xmlns="http://www.w3.org/2000/svg">
<path fill-rule="evenodd" clip-rule="evenodd" d="M21.7463 6.04122C21.7434 6.05092 21.74 6.06264 21.74 6.07436V6.07438C21.73 6.15437 21.72 6.23436 21.69 6.30436C21.66 6.39436 21.6 6.46436 21.54 6.53436C21.53 6.53436 21.53 6.54436 21.53 6.54436C21.46 6.61436 21.38 6.66436 21.29 6.70436C21.19 6.74436 21.1 6.76436 21 6.76436L16.46 6.74436H16.45C15.8 6.74436 15.19 7.07436 14.83 7.61436L8.44 17.1944C7.8 18.1644 6.73 18.7344 5.57 18.7344H5.55L3 18.7244C2.58 18.7244 2.25 18.3844 2.25 17.9744C2.25 17.5544 2.59 17.2244 3 17.2244L5.54 17.2444H5.55C6.2 17.2444 6.81 16.9144 7.17 16.3744L13.56 6.79436C14.2 5.82436 15.28 5.25436 16.43 5.25436H16.45L19.18 5.26436L18.47 4.55436C18.18 4.26436 18.18 3.78436 18.47 3.49436C18.76 3.20436 19.24 3.20436 19.53 3.49436L21.53 5.49436C21.6 5.56436 21.65 5.64436 21.69 5.73436C21.73 5.82436 21.75 5.92436 21.75 6.02436C21.75 6.0285 21.7483 6.03436 21.7463 6.04122ZM8.42 6.68732C7.77 5.78732 6.73 5.25732 5.62 5.25732H5.6L3 5.26732C2.59 5.26732 2.25 5.60732 2.25 6.01732C2.25 6.42732 2.59 6.76732 3 6.76732L5.61 6.75732H5.62C6.25 6.75732 6.84 7.05732 7.2 7.56732L8.28 9.06732C8.43 9.26732 8.66 9.37732 8.89 9.37732C9.04 9.37732 9.2 9.32732 9.33 9.23732C9.67 8.98732 9.74 8.51732 9.5 8.18732L8.42 6.68732ZM21.7507 17.9765C21.7507 17.9665 21.7482 17.9565 21.7457 17.9465C21.7432 17.9365 21.7407 17.9265 21.7407 17.9165C21.7307 17.8365 21.7207 17.7565 21.6907 17.6865C21.6507 17.5965 21.6007 17.5265 21.5407 17.4565C21.5407 17.4565 21.5407 17.4465 21.5307 17.4465C21.4607 17.3765 21.3807 17.3265 21.2907 17.2865C21.2007 17.2465 21.1007 17.2265 21.0007 17.2265L16.3307 17.2465H16.3207C15.7207 17.2465 15.1407 16.9665 14.7807 16.4865L13.5607 14.9165C13.3107 14.5865 12.8407 14.5265 12.5107 14.7865C12.1807 15.0465 12.1207 15.5065 12.3807 15.8365L13.6007 17.4065C14.2507 18.2465 15.2707 18.7465 16.3307 18.7465H16.3407L19.1907 18.7365L18.4807 19.4465C18.1907 19.7365 18.1907 20.2165 18.4807 20.5065C18.6307 20.6565 18.8207 20.7265 19.0107 20.7265C19.2007 20.7265 19.3907 20.6565 19.5407 20.5065L21.5407 18.5065C21.6107 18.4365 21.6607 18.3565 21.7007 18.2665C21.7307 18.1665 21.7507 18.0665 21.7507 17.9765Z" fill="#B0B0B0"/>
</svg>
