<svg width="24" height="25" viewBox="0 0 24 25" fill="none" xmlns="http://www.w3.org/2000/svg">
<path fill-rule="evenodd" clip-rule="evenodd" d="M12.625 22.7338C18.265 22.4093 22.75 17.7219 22.75 12.0017C22.75 6.07171 17.93 1.25171 12 1.25171C6.07 1.25171 1.25 6.07171 1.25 12.0017C1.25 17.8134 5.8796 22.559 11.6464 22.746C11.7643 22.7498 11.8824 22.7518 12.0008 22.7518C12.2097 22.7518 12.4178 22.7457 12.625 22.7338ZM19.068 17.9622C20.4288 16.3511 21.25 14.2704 21.25 12.0017C21.25 6.90171 17.1 2.75171 12 2.75171C6.9 2.75171 2.75 6.90171 2.75 12.0017C2.75 14.2705 3.57127 16.3512 4.93209 17.9623C5.29037 17.2924 5.85908 16.6829 6.61081 16.1818C9.59081 14.2018 14.4208 14.2018 17.3908 16.1818C18.1415 16.6883 18.7096 17.2954 19.068 17.9622ZM11.713 21.2473C11.8083 21.2502 11.904 21.2517 12 21.2517C12.156 21.2517 12.3111 21.2478 12.4652 21.2402C14.4676 21.1398 16.3796 20.3923 17.9208 19.1018C17.7408 18.4918 17.2608 17.9018 16.5508 17.4218C14.0908 15.7818 9.92081 15.7818 7.44081 17.4218C6.73081 17.9018 6.26081 18.4918 6.08081 19.1018C7.66729 20.4302 9.64653 21.1832 11.713 21.2473ZM12.1205 13.5317H12.0505H11.9505C9.68047 13.4617 7.98047 11.6917 7.98047 9.51169C7.98047 7.29169 9.79047 5.48169 12.0105 5.48169C14.2305 5.48169 16.0405 7.29169 16.0405 9.51169C16.0305 11.7017 14.3205 13.4617 12.1505 13.5317H12.1205ZM12.0005 6.97169C10.6005 6.97169 9.47047 8.11169 9.47047 9.50169C9.47047 10.8717 10.5405 11.9817 11.9005 12.0317C11.9305 12.0217 12.0305 12.0217 12.1305 12.0317C13.4705 11.9617 14.5205 10.8617 14.5305 9.50169C14.5305 8.11169 13.4005 6.97169 12.0005 6.97169Z" fill="#B0B0B0"/>
</svg>
