<svg width="24" height="25" viewBox="0 0 24 25" fill="none" xmlns="http://www.w3.org/2000/svg">
<path fill-rule="evenodd" clip-rule="evenodd" d="M14.0142 3.77612C15.1761 4.41813 15.7515 5.77149 15.7515 7.41257V16.5926C15.7515 18.2296 15.1755 19.5818 14.0149 20.2249C12.854 20.8681 11.4022 20.6389 10.0132 19.7681L10.0131 19.768L7.10159 17.9433C6.88896 17.8187 6.65279 17.7526 6.43146 17.7526H5.00146C3.88586 17.7526 2.91139 17.4732 2.22113 16.7829C1.53087 16.0926 1.25146 15.1182 1.25146 14.0026V10.0026C1.25146 8.88696 1.53087 7.9125 2.22113 7.22224C2.91139 6.53198 3.88586 6.25257 5.00146 6.25257H6.43146C6.65279 6.25257 6.88897 6.18645 7.1016 6.06179L10.0131 4.23714L10.0132 4.23706C11.401 3.36698 12.8527 3.13433 14.0142 3.77612ZM13.2887 5.08902C12.7853 4.81083 11.942 4.79815 10.8099 5.508L10.8097 5.50808L7.88975 7.33808L7.88211 7.34286L7.87437 7.34746C7.44879 7.60015 6.94772 7.75257 6.43146 7.75257H5.00146C4.11707 7.75257 3.59154 7.97316 3.2818 8.2829C2.97205 8.59264 2.75146 9.11818 2.75146 10.0026V14.0026C2.75146 14.887 2.97205 15.4125 3.2818 15.7222C3.59154 16.032 4.11707 16.2526 5.00146 16.2526H6.43146C6.94772 16.2526 7.44879 16.405 7.87437 16.6577L7.88211 16.6623L7.88975 16.6671L10.8097 18.4971L10.8099 18.4971C11.9409 19.2062 12.7839 19.1921 13.288 18.9128C13.7924 18.6333 14.2515 17.9255 14.2515 16.5926V7.41257C14.2515 6.07366 13.7918 5.36702 13.2887 5.08902ZM17.5511 7.40284C17.8823 7.15409 18.3524 7.22093 18.6012 7.55213C20.5816 10.189 20.5816 13.8161 18.6012 16.4529C18.3524 16.7841 17.8823 16.851 17.5511 16.6022C17.2199 16.3535 17.153 15.8833 17.4018 15.5521C18.9814 13.449 18.9814 10.5561 17.4018 8.45294C17.153 8.12174 17.2199 7.65159 17.5511 7.40284ZM20.4312 5.05229C20.1826 4.72102 19.7124 4.65406 19.3812 4.90273C19.0499 5.15139 18.9829 5.62152 19.2316 5.95279C21.9214 9.53602 21.9214 14.4691 19.2316 18.0523C18.9829 18.3836 19.0499 18.8537 19.3812 19.1024C19.7124 19.351 20.1826 19.2841 20.4312 18.9528C23.5215 14.836 23.5215 9.16906 20.4312 5.05229Z" fill="#B0B0B0"/>
</svg>
