<svg width="24" height="25" viewBox="0 0 24 25" fill="none" xmlns="http://www.w3.org/2000/svg">
<path fill-rule="evenodd" clip-rule="evenodd" d="M17.0825 7.41257C17.0825 5.77149 16.5071 4.41813 15.3452 3.77612C14.1838 3.13433 12.732 3.36698 11.3442 4.23706L11.3441 4.23714L8.43266 6.06179C8.22003 6.18645 7.98385 6.25257 7.76252 6.25257H6.33252C5.21691 6.25257 4.24245 6.53198 3.55219 7.22224C2.86193 7.9125 2.58252 8.88696 2.58252 10.0026V14.0026C2.58252 15.1182 2.86193 16.0926 3.55219 16.7829C4.24245 17.4732 5.21691 17.7526 6.33252 17.7526H7.76252C7.98384 17.7526 8.22002 17.8187 8.43264 17.9433L11.3441 19.768L11.3442 19.7681C12.7332 20.6389 14.1851 20.8681 15.346 20.2249C16.5066 19.5818 17.0825 18.2296 17.0825 16.5926V7.41257ZM12.1409 5.508C13.2731 4.79815 14.1163 4.81083 14.6198 5.08902C15.1229 5.36702 15.5825 6.07366 15.5825 7.41257V16.5926C15.5825 17.9255 15.1235 18.6333 14.619 18.9128C14.115 19.1921 13.2719 19.2062 12.1409 18.4971L12.1408 18.4971L9.2208 16.6671L9.21317 16.6623L9.20542 16.6577C8.77985 16.405 8.27877 16.2526 7.76252 16.2526H6.33252C5.44813 16.2526 4.92259 16.032 4.61285 15.7222C4.30311 15.4125 4.08252 14.887 4.08252 14.0026V10.0026C4.08252 9.11818 4.30311 8.59264 4.61285 8.2829C4.92259 7.97316 5.44813 7.75257 6.33252 7.75257H7.76252C8.27877 7.75257 8.77985 7.60015 9.20542 7.34746L9.21317 7.34286L9.2208 7.33808L12.1408 5.50808L12.1409 5.508ZM19.9322 7.55213C19.6835 7.22093 19.2133 7.15409 18.8821 7.40284C18.5509 7.65159 18.4841 8.12174 18.7328 8.45294C20.3124 10.5561 20.3124 13.449 18.7328 15.5521C18.4841 15.8833 18.5509 16.3535 18.8821 16.6022C19.2133 16.851 19.6835 16.7841 19.9322 16.4529C21.9126 13.8161 21.9126 10.189 19.9322 7.55213Z" fill="#B0B0B0"/>
</svg>
